<?xml version="1.0" encoding="utf-8"?>
<!-- Generator: Adobe Illustrator 25.2.2, SVG Export Plug-In . SVG Version: 6.00 Build 0)  -->
<svg version="1.1" id="Layer_1" xmlns="http://www.w3.org/2000/svg" xmlns:xlink="http://www.w3.org/1999/xlink" x="0px" y="0px"
	 viewBox="0 0 414 113.4" style="enable-background:new 0 0 414 113.4;" xml:space="preserve">
<style type="text/css">
	.st0{fill:#FF6A14;}
	.st1{fill:#425563;}
</style>
<path class="st0" d="M68.6,74.1v21.5h-52v-52H38v-8H16.6c-4.4,0-8,3.6-8,8l0,0v52c0,4.4,3.6,8,8,8l0,0h39.6h12.4c4.4,0,8-3.6,8-8
	l0,0V74.1H68.6z"/>
<g>
	<g>
		<path class="st0" d="M65.5,38c4.9,0.8,6.4,4.7,6.4,8.7v9c0,6.6-4.8,10.8-13.1,10.8h-11c-1.7,0-2.6-0.9-2.6-2.6V14.4
			c0-1.6,0.9-2.6,2.6-2.6H59c8.3,0,12.6,4.1,12.6,10.8v6.9C71.6,33.2,70.1,37.5,65.5,38z M52.5,35.1h6.3c3.5,0,5.5-1.6,5.5-4.9v-6.3
			c0-3.8-1.8-5.6-5.5-5.6h-6.3V35.1z M59.1,41.3h-6.6V60h6.6c3.7,0,5.5-1.8,5.5-5.6v-8.2C64.6,42.9,62.6,41.3,59.1,41.3z"/>
		<path class="st0" d="M102,14.4v41.1c0,8.2-4.8,11.5-13.1,11.5h-0.3c-8.3,0-13.1-3.3-13.1-11.5V14.4c0-1.6,0.9-2.6,2.6-2.6h2.2
			c1.6,0,2.6,0.9,2.6,2.6v39.7c0,4.8,1.9,6.5,5.9,6.5s5.9-1.6,5.9-6.5V14.4c0-1.6,0.9-2.6,2.6-2.6h2.2C101.2,11.8,102,12.8,102,14.4
			z"/>
		<path class="st0" d="M122.2,63.8c0,1.6-0.9,2.6-2.6,2.6h-2.2c-1.6,0-2.6-0.9-2.6-2.6V46.3l-10.5-31.6c-0.6-1.7,0.2-2.9,2.1-2.9
			h2.3c1.6,0,2.5,0.7,2.9,2.3l6.9,24.1l6.9-24.1c0.4-1.6,1.3-2.3,2.8-2.3h2.3c1.9,0,2.7,1.2,2.1,2.9l-10.5,31.6L122.2,63.8
			L122.2,63.8z"/>
		<path class="st0" d="M155.8,66.4h-18.1c-1.7,0-2.6-0.9-2.6-2.6V14.4c0-1.6,0.9-2.6,2.6-2.6h17.9c1.7,0,2.6,0.9,2.6,2.6v1.3
			c0,1.7-0.9,2.6-2.6,2.6h-13.1v17.2h10.7c1.7,0,2.6,0.9,2.6,2.6v1.4c0,1.6-0.9,2.6-2.6,2.6h-10.7V60h13.3c1.7,0,2.6,0.9,2.6,2.6
			v1.3C158.4,65.5,157.5,66.4,155.8,66.4z"/>
		<path class="st0" d="M186.6,66.4h-2.2c-1.5,0-2.4-0.6-2.9-2.1L174.7,44h-0.1h-6.3v19.8c0,1.6-0.9,2.6-2.6,2.6h-2.2
			c-1.7,0-2.6-0.9-2.6-2.6V14.4c0-1.6,0.9-2.6,2.6-2.6h11.1c8.3,0,13.3,3.5,13.3,11.5v9.1c0,5.5-2.3,8.8-6.4,10.5l7.3,20.5
			C189.3,65.2,188.5,66.4,186.6,66.4z M168.3,37.6h6c4.1,0,6.2-1.6,6.2-6.5v-6.4c0-4.8-2.2-6.5-6.2-6.5h-6V37.6z"/>
		<path class="st0" d="M199.5,14.8l-5,15.8c-0.5,1.2-1.3,1.8-2.6,1.8c-1.4,0-2.1-0.9-1.9-2.3l2.6-15.8c0.2-1.6,1.2-2.3,2.8-2.3h1.9
			C199.1,11.8,200.1,13.1,199.5,14.8z"/>
		<path class="st0" d="M224.3,31.1h-2c-1.7,0-2.6-0.9-2.6-2.6v-4.8c0-4.4-2.1-6.1-5.8-6.1s-5.9,1.7-5.9,6.1v3.7
			c0,3.3,1.2,4.4,4.3,6.2l7.1,3.9c4.7,2.7,7.6,5.3,7.6,10.5v7.6c0,8.2-4.8,11.4-13,11.4h-0.2c-8.3,0-13-3.1-13-11.4v-6.7
			c0-1.6,0.9-2.6,2.6-2.6h2c1.7,0,2.6,0.9,2.6,2.6v5.5c0,4.3,2.1,6.2,5.9,6.2s5.9-1.9,5.9-6.2v-4.3c0-3.3-1.2-4.7-4.4-6.5l-7-3.9
			c-5-2.9-7.6-5.2-7.6-10.5v-6.9c0-7.9,5.5-11.2,12.9-11.2h0.2c7.5,0,12.9,3.4,12.9,11.2v6.1C226.8,30.2,226,31.1,224.3,31.1z"/>
		<path class="st1" d="M253,14.4v1.3c0,1.7-0.9,2.6-2.6,2.6h-6.9v45.6c0,1.6-0.9,2.6-2.6,2.6h-2.2c-1.6,0-2.6-0.9-2.6-2.6V18.3h-6.9
			c-1.6,0-2.6-0.9-2.6-2.6v-1.3c0-1.6,0.9-2.6,2.6-2.6h21.2C252.1,11.8,253,12.8,253,14.4z"/>
		<path class="st1" d="M266.8,11.2h0.6c8.3,0,13.3,3.5,13.3,11.5v32.8c0,8-5,11.5-13.3,11.5h-0.6c-8.3,0-13.3-3.5-13.3-11.5V22.7
			C253.5,14.6,258.5,11.2,266.8,11.2z M267.1,60.6c4.1,0,6.2-1.6,6.2-6.5v-30c0-4.8-2.2-6.5-6.2-6.5c-4.1,0-6.2,1.6-6.2,6.5v30
			C260.8,58.9,263,60.6,267.1,60.6z"/>
		<path class="st1" d="M298.1,11.2h0.6c8.3,0,13.3,3.5,13.3,11.5v32.8c0,8-5,11.5-13.3,11.5h-0.6c-8.3,0-13.3-3.5-13.3-11.5V22.7
			C284.9,14.6,289.9,11.2,298.1,11.2z M298.4,60.6c4.1,0,6.2-1.6,6.2-6.5v-30c0-4.8-2.2-6.5-6.2-6.5c-4.1,0-6.2,1.6-6.2,6.5v30
			C292.2,58.9,294.4,60.6,298.4,60.6z"/>
		<path class="st1" d="M338.6,62.4v1.5c0,1.6-0.9,2.6-2.6,2.6h-16.9c-1.7,0-2.6-0.9-2.6-2.6V14.4c0-1.6,0.9-2.6,2.6-2.6h2.2
			c1.6,0,2.6,0.9,2.6,2.6v45.4h12.2C337.7,59.8,338.6,60.7,338.6,62.4z"/>
		<path class="st1" d="M366,66.4h-2.2c-1.5,0-2.4-0.6-2.9-2.1l-8.2-23.9l-5.1,9.4v14.1c0,1.6-0.9,2.6-2.6,2.6h-2.2
			c-1.7,0-2.6-0.9-2.6-2.6V14.4c0-1.6,0.9-2.6,2.6-2.6h2.2c1.6,0,2.6,0.9,2.6,2.6v23.7l11.6-24.3c0.5-1.3,1.6-2,3-2h2.6
			c2,0,2.8,1.3,1.9,3l-9.5,17.5l11.1,31.1C368.7,65.2,367.9,66.4,366,66.4z"/>
		<path class="st1" d="M375,66.4h-2.2c-1.7,0-2.6-0.9-2.6-2.6V14.4c0-1.6,0.9-2.6,2.6-2.6h2.2c1.6,0,2.6,0.9,2.6,2.6v49.5
			C377.5,65.5,376.6,66.4,375,66.4z"/>
		<path class="st1" d="M405.4,14.4v1.3c0,1.7-0.9,2.6-2.6,2.6h-6.9v45.6c0,1.6-0.9,2.6-2.6,2.6h-2.2c-1.6,0-2.6-0.9-2.6-2.6V18.3
			h-6.9c-1.6,0-2.6-0.9-2.6-2.6v-1.3c0-1.6,0.9-2.6,2.6-2.6h21.2C404.5,11.8,405.4,12.8,405.4,14.4z"/>
	</g>
</g>
</svg>
